<?xml version="1.0" encoding="UTF-8"?>
<svg width="60px" height="50px" viewBox="0 0 60 50" version="1.1" xmlns="http://www.w3.org/2000/svg" xmlns:xlink="http://www.w3.org/1999/xlink">
    <!-- Generator: Sketch 51.2 (57519) - http://www.bohemiancoding.com/sketch -->
    <title>logo-bgs</title>
    <desc>Created with Sketch.</desc>
    <defs></defs>
    <g id="logo" stroke="none" stroke-width="1" fill="none" fill-rule="evenodd">
        <path d="M35.7546791,43.9148029 C34.7063463,45.2265706 33.4231267,46.3099631 31.905,47.165 C29.8749899,48.3083391 26.6466788,48.88 24.22,48.88 L0,48.88 L0,0.86 L23.8,0.86 C26.0866781,0.86 28.1866571,1.38499475 30.1,2.435 C32.0133429,3.48500525 33.541661,4.90832435 34.685,6.705 C35.8283391,8.50167565 36.4,10.4733226 36.4,12.62 C36.4,15.886683 35.6300077,18.4066578 34.09,20.18 C32.5499923,21.9533422 30.5900119,23.1666634 28.21,23.82 L28.21,24.17 C30.5831192,24.6446238 33.4919219,25.6976917 35.3556719,27.3292317 C35.4197125,27.2120465 35.4859171,27.0956359 35.5542858,26.98 C36.6342912,25.1533242 38.1476094,23.706672 40.0942858,22.64 C42.0409622,21.573328 44.2409402,21.04 46.6942858,21.04 L47.8142858,21.04 C49.787629,21.04 51.6276106,21.4666624 53.3342858,22.32 C55.040961,23.1733376 56.4009474,24.3599924 57.4142858,25.88 C58.4276242,27.4000076 58.9342858,29.1199904 58.9342858,31.04 L58.9342858,31.32 L51.1742858,31.32 C51.1742858,29.9599932 50.8009562,28.94667 50.0542858,28.28 C49.3076154,27.61333 48.347625,27.28 47.1742858,27.28 L46.9742858,27.28 C45.8542802,27.28 44.907623,27.6666628 44.1342858,28.44 C43.3609486,29.2133372 42.9742858,30.1599944 42.9742858,31.28 L42.9742858,39 C42.9742858,40.1200056 43.3609486,41.0666628 44.1342858,41.84 C44.907623,42.6133372 45.8542802,43 46.9742858,43 L47.6942858,43 C48.8142914,43 49.6742828,42.6466702 50.2742858,41.94 C50.8742888,41.2333298 51.1742858,40.2400064 51.1742858,38.96 L46.5342858,38.96 L46.5342858,33.52 L58.9342858,33.52 L58.9342858,43.12 C58.9342858,45.2266772 58.9742854,46.61333 59.0542858,47.28 L59.2142858,48.88 L54.7342858,48.88 L53.6142858,45.96 C52.7609482,46.9200048 51.6076264,47.7133302 50.1542858,48.34 C48.7009452,48.9666698 47.2409598,49.28 45.7742858,49.28 L45.3742858,49.28 C43.214275,49.28 41.2609612,48.746672 39.5142858,47.68 C37.9602877,46.7309935 36.7070951,45.475938 35.7546791,43.9148029 Z M20.72,20.32 C22.120007,20.32 23.3566613,19.7833387 24.43,18.71 C25.5033387,17.6366613 26.04,16.2833415 26.04,14.65 C26.04,12.6899902 25.5033387,11.2783377 24.43,10.415 C23.3566613,9.55166235 22.120007,9.12 20.72,9.12 L10.22,9.12 L10.22,20.32 L20.72,20.32 Z M22.49,40.2 L10.22,40.2 L10.22,28.51 L22.49,28.51 C24.0300077,28.51 25.3366613,29.0466613 26.41,30.12 C27.4833387,31.1933387 28.02,32.4999923 28.02,34.04 L28.02,34.67 C28.02,36.2100077 27.4833387,37.5166613 26.41,38.59 C25.3366613,39.6633387 24.0300077,40.2 22.49,40.2 Z M49.7645457,0.084375 C52.3131919,0.084375 54.3148641,0.580386329 55.7696223,1.57242387 C57.2243806,2.5644614 57.9517488,3.97313358 57.9517488,5.79848265 L57.9517488,6.15561438 L54.6362699,6.15561438 L54.6362699,5.70919972 C54.6362699,4.75684368 54.1964658,4.02274691 53.3168446,3.50688739 C52.4372233,2.99102787 51.2756896,2.73310198 49.8322086,2.73310198 C48.2308468,2.73310198 46.9847354,2.96622731 46.0938369,3.43248495 C45.2029385,3.89874259 44.7574959,4.56835789 44.7574959,5.44135092 C44.7574959,6.0960957 45.011229,6.63178793 45.5187028,7.0484437 C46.0261766,7.46509946 46.6576901,7.79246694 47.4132622,8.03055595 C48.1688343,8.26864496 49.2119592,8.53649108 50.5426683,8.83410234 C52.2568021,9.23091735 53.6438763,9.61780619 54.7039327,9.99478045 C55.7639891,10.3717547 56.6717897,10.9372076 57.4273618,11.6911562 C58.1829339,12.4451047 58.5607143,13.4470476 58.5607143,14.6970149 C58.5607143,16.919179 57.788238,18.541136 56.2432622,19.5629347 C54.6982864,20.5847333 52.5274588,21.095625 49.7307143,21.095625 C46.9339698,21.095625 44.7631422,20.5748131 43.2181664,19.5331737 C41.6731906,18.4915343 40.9007143,16.9786997 40.9007143,14.9946246 L40.9345457,14.3994051 L44.2500246,14.3994051 L44.2161932,15.0243856 C44.2161932,16.1751492 44.7067439,17.0332488 45.6878599,17.5987102 C46.6689759,18.1641716 48.0278576,18.446898 49.7645457,18.446898 C51.4561251,18.446898 52.7924527,18.1740918 53.7735687,17.6284711 C54.7546847,17.0828505 55.2452354,16.3338734 55.2452354,15.3815174 C55.2452354,14.6275688 54.9802253,14.0174749 54.4501971,13.5512172 C53.9201689,13.0849596 53.2548243,12.7228713 52.4541434,12.4649416 C51.6534625,12.2070118 50.5652295,11.9193252 49.1894116,11.6018732 C47.4978323,11.2050582 46.1445891,10.8280896 45.1296415,10.4709561 C44.1146939,10.1138226 43.2463629,9.56325 42.5246223,8.81922185 C41.8028818,8.07519369 41.442017,7.09805138 41.442017,5.88776558 C41.442017,3.92353126 42.1975778,2.46525795 43.708722,1.51290191 C45.2198662,0.560545876 47.2384539,0.084375 49.7645457,0.084375 Z" fill="#000000"></path>
    </g>
</svg>