<?xml version="1.0" encoding="UTF-8"?>
<svg width="60px" height="50px" viewBox="0 0 60 50" version="1.1" xmlns="http://www.w3.org/2000/svg" xmlns:xlink="http://www.w3.org/1999/xlink">
    <!-- Generator: Sketch 51.2 (57519) - http://www.bohemiancoding.com/sketch -->
    <title>logo-bgs-white</title>
    <desc>Created with Sketch.</desc>
    <defs></defs>
    <g id="logo" stroke="none" stroke-width="1" fill="none" fill-rule="evenodd">
        <path d="M35.7546791,43.8304279 C34.7063463,45.1421956 33.4231267,46.2255881 31.905,47.080625 C29.8749899,48.223964 26.6466788,48.795625 24.22,48.795625 L0,48.795625 L0,0.775625 L23.8,0.775625 C26.0866781,0.775625 28.1866571,1.30061975 30.1,2.350625 C32.0133429,3.40063025 33.541661,4.82394935 34.685,6.620625 C35.8283391,8.41730065 36.4,10.3889476 36.4,12.535625 C36.4,15.802308 35.6300077,18.3222828 34.09,20.095625 C32.5499923,21.8689672 30.5900119,23.0822884 28.21,23.735625 L28.21,24.085625 C30.5831192,24.5602488 33.4919219,25.6133167 35.3556719,27.2448567 C35.4197125,27.1276715 35.4859171,27.0112609 35.5542858,26.895625 C36.6342912,25.0689492 38.1476094,23.622297 40.0942858,22.555625 C42.0409622,21.488953 44.2409402,20.955625 46.6942858,20.955625 L47.8142858,20.955625 C49.787629,20.955625 51.6276106,21.3822874 53.3342858,22.235625 C55.040961,23.0889626 56.4009474,24.2756174 57.4142858,25.795625 C58.4276242,27.3156326 58.9342858,29.0356154 58.9342858,30.955625 L58.9342858,31.235625 L51.1742858,31.235625 C51.1742858,29.8756182 50.8009562,28.862295 50.0542858,28.195625 C49.3076154,27.528955 48.347625,27.195625 47.1742858,27.195625 L46.9742858,27.195625 C45.8542802,27.195625 44.907623,27.5822878 44.1342858,28.355625 C43.3609486,29.1289622 42.9742858,30.0756194 42.9742858,31.195625 L42.9742858,38.915625 C42.9742858,40.0356306 43.3609486,40.9822878 44.1342858,41.755625 C44.907623,42.5289622 45.8542802,42.915625 46.9742858,42.915625 L47.6942858,42.915625 C48.8142914,42.915625 49.6742828,42.5622952 50.2742858,41.855625 C50.8742888,41.1489548 51.1742858,40.1556314 51.1742858,38.875625 L46.5342858,38.875625 L46.5342858,33.435625 L58.9342858,33.435625 L58.9342858,43.035625 C58.9342858,45.1423022 58.9742854,46.528955 59.0542858,47.195625 L59.2142858,48.795625 L54.7342858,48.795625 L53.6142858,45.875625 C52.7609482,46.8356298 51.6076264,47.6289552 50.1542858,48.255625 C48.7009452,48.8822948 47.2409598,49.195625 45.7742858,49.195625 L45.3742858,49.195625 C43.214275,49.195625 41.2609612,48.662297 39.5142858,47.595625 C37.9602877,46.6466185 36.7070951,45.391563 35.7546791,43.8304279 Z M20.72,20.235625 C22.120007,20.235625 23.3566613,19.6989637 24.43,18.625625 C25.5033387,17.5522863 26.04,16.1989665 26.04,14.565625 C26.04,12.6056152 25.5033387,11.1939626 24.43,10.330625 C23.3566613,9.46728735 22.120007,9.035625 20.72,9.035625 L10.22,9.035625 L10.22,20.235625 L20.72,20.235625 Z M22.49,40.115625 L10.22,40.115625 L10.22,28.425625 L22.49,28.425625 C24.0300077,28.425625 25.3366613,28.9622863 26.41,30.035625 C27.4833387,31.1089637 28.02,32.4156173 28.02,33.955625 L28.02,34.585625 C28.02,36.1256327 27.4833387,37.4322863 26.41,38.505625 C25.3366613,39.5789637 24.0300077,40.115625 22.49,40.115625 Z M49.7645457,0 C52.3131919,-3.52440771e-15 54.3148641,0.496011329 55.7696223,1.48804887 C57.2243806,2.4800864 57.9517488,3.88875858 57.9517488,5.71410765 L57.9517488,6.07123938 L54.6362699,6.07123938 L54.6362699,5.62482472 C54.6362699,4.67246868 54.1964658,3.93837191 53.3168446,3.42251239 C52.4372233,2.90665287 51.2756896,2.64872698 49.8322086,2.64872698 C48.2308468,2.64872698 46.9847354,2.88185231 46.0938369,3.34810995 C45.2029385,3.81436759 44.7574959,4.48398289 44.7574959,5.35697592 C44.7574959,6.0117207 45.011229,6.54741293 45.5187028,6.9640687 C46.0261766,7.38072446 46.6576901,7.70809194 47.4132622,7.94618095 C48.1688343,8.18426996 49.2119592,8.45211608 50.5426683,8.74972734 C52.2568021,9.14654235 53.6438763,9.53343119 54.7039327,9.91040545 C55.7639891,10.2873797 56.6717897,10.8528326 57.4273618,11.6067812 C58.1829339,12.3607297 58.5607143,13.3626726 58.5607143,14.6126399 C58.5607143,16.834804 57.788238,18.456761 56.2432622,19.4785597 C54.6982864,20.5003583 52.5274588,21.01125 49.7307143,21.01125 C46.9339698,21.01125 44.7631422,20.4904381 43.2181664,19.4487987 C41.6731906,18.4071593 40.9007143,16.8943247 40.9007143,14.9102496 L40.9345457,14.3150301 L44.2500246,14.3150301 L44.2161932,14.9400106 C44.2161932,16.0907742 44.7067439,16.9488738 45.6878599,17.5143352 C46.6689759,18.0797966 48.0278576,18.362523 49.7645457,18.362523 C51.4561251,18.362523 52.7924527,18.0897168 53.7735687,17.5440961 C54.7546847,16.9984755 55.2452354,16.2494984 55.2452354,15.2971424 C55.2452354,14.5431938 54.9802253,13.9330999 54.4501971,13.4668422 C53.9201689,13.0005846 53.2548243,12.6384963 52.4541434,12.3805666 C51.6534625,12.1226368 50.5652295,11.8349502 49.1894116,11.5174982 C47.4978323,11.1206832 46.1445891,10.7437146 45.1296415,10.3865811 C44.1146939,10.0294476 43.2463629,9.478875 42.5246223,8.73484685 C41.8028818,7.99081869 41.442017,7.01367638 41.442017,5.80339058 C41.442017,3.83915626 42.1975778,2.38088295 43.708722,1.42852691 C45.2198662,0.476170876 47.2384539,-3.52440771e-15 49.7645457,0 Z" id="logo-copy" fill="#FFFFFF"></path>
    </g>
</svg>